<svg width="1920" height="850" viewBox="0 0 1920 850" fill="none" xmlns="http://www.w3.org/2000/svg">
<rect width="1920" height="850" fill="url(#paint0_linear_850_1414)"/>
<path d="M1179.21 119.491C1179.52 119.798 1183.94 122.624 1188.98 125.756C1247.53 162.245 1299.14 204.508 1337.85 247.692L1341.66 251.992V185.465V118.999H1260.13C1215.28 118.999 1178.84 119.245 1179.21 119.491Z" fill="url(#paint1_linear_850_1414)"/>
<path d="M1368.69 191.056C1368.75 240.015 1368.88 253.038 1369.49 252.239C1369.92 251.748 1385.53 233.012 1404.2 210.652C1422.88 188.354 1438.24 169.802 1438.24 169.556C1438.3 169.311 1427.98 163.106 1415.32 155.796C1402.67 148.548 1387 139.518 1380.55 135.771L1368.69 128.891V191.056Z" fill="url(#paint2_linear_850_1414)"/>
<path d="M1169.01 135.586C1194.02 158.499 1206.37 171.521 1223.45 192.837C1260.37 238.909 1286.61 292.167 1297.97 343.829C1300.12 353.596 1301.9 364.284 1303.32 375.771C1304.67 387.013 1305.16 416.744 1304.18 428.17C1301.35 461.526 1292.01 493.284 1274.87 527.5C1259.14 559.013 1239.6 588.56 1202.56 636.843C1148.06 707.854 1130.36 733.163 1111.75 766.457C1097.37 792.196 1084.96 821.436 1078.2 845.577L1076.97 850H1160.1H1243.29L1243.66 846.437C1244.52 839.434 1247.16 826.841 1249.8 817.811C1255.03 799.629 1261.72 783.35 1274.13 758.471C1284.39 737.893 1291.64 724.931 1315.11 684.757C1373.48 584.997 1394 537.206 1401.07 484.5C1402.61 472.767 1402.61 443.527 1401.07 431.364C1394.13 377.307 1369.73 324.97 1326.73 271.773C1289.13 225.271 1232.97 175.699 1177.92 140.5C1166.92 133.436 1166.25 133.067 1169.01 135.586Z" fill="url(#paint3_linear_850_1414)"/>
<path d="M1432.83 218.637C1416.68 237.987 1396.4 262.19 1387.86 272.387L1372.32 291L1377.48 298.801C1391.61 320.301 1402.85 341.679 1410.72 361.95C1412.31 366.004 1413.85 369.936 1414.16 370.673C1414.65 371.901 1415.57 371.164 1425.34 361.213C1456.24 329.823 1501.28 288.666 1544.72 252.054C1550.74 246.956 1556.64 241.919 1557.74 240.936L1559.77 239.093L1511.79 211.45C1485.43 196.216 1463.49 183.746 1463.06 183.623C1462.63 183.5 1448.99 199.287 1432.83 218.637Z" fill="url(#paint4_linear_850_1414)"/>
<path d="M1213.25 216.856C1213.25 216.979 1214.29 219.559 1215.58 222.569C1226.58 247.939 1236.84 285.963 1241.14 317.107C1243.72 336.027 1244.21 343.337 1244.21 362.564C1244.21 382.221 1243.66 388.979 1240.53 404.336C1232.78 442.606 1213.98 479.831 1182.47 519.514C1169.75 535.547 1158.26 548.14 1136.82 569.64C1110.27 596.116 1091.72 612.947 1038.45 658.957C963.001 724.071 929.639 756.076 898.489 793.486C885.034 809.641 868.138 833.107 859.413 847.666L858 850H949.607C1036.36 850 1041.28 849.939 1041.64 848.894C1056.76 806.509 1077.71 764.983 1103.94 725.607C1121.89 698.64 1134.6 681.993 1175.15 632.543C1205.57 595.44 1219.76 576.643 1232.42 556.863C1258.84 515.46 1272.72 477.374 1278.13 431.057C1279.48 419.631 1279.97 388.733 1278.99 378.167C1274.56 329.454 1253.43 274.906 1219.82 225.394C1214.97 218.207 1213.25 215.996 1213.25 216.856Z" fill="url(#paint5_linear_850_1414)"/>
<path d="M1084.22 262.928C1026.59 284.613 978.729 302.673 977.931 303.041C976.517 303.655 976.825 303.84 981.924 305.375C1022.47 317.6 1057.5 334.861 1085.14 356.238C1094.3 363.364 1111.93 380.81 1118.14 388.98C1134.91 411.155 1144.31 433.208 1148.55 460.544C1149.41 466.134 1149.66 471.171 1149.59 485.115C1149.59 500.903 1149.41 503.667 1147.94 513.495C1146.03 526.027 1146.09 525.228 1146.89 524.737C1148 524.061 1166.67 500.473 1172.2 492.733C1206 445.678 1218.71 410.234 1219.82 359.801C1220.43 331.483 1217.92 309.245 1210.67 280.251C1205.14 258.014 1192.48 223.307 1189.96 223.491C1189.41 223.553 1141.85 241.305 1084.22 262.928Z" fill="url(#paint6_linear_850_1414)"/>
<path d="M1570.52 265.63C1509.02 317.475 1459.87 363.117 1425.46 400.342L1423.43 402.492L1424.97 409.864C1428.41 426.757 1429.21 435.234 1429.21 457.778C1429.21 474.425 1428.96 480.384 1428.1 487.264C1423.37 523.814 1411.27 561.162 1389.89 605.33L1384.17 617.124L1386.38 620.072C1394.56 630.945 1407.7 644.152 1423.25 657.052C1433.51 665.591 1452.98 680.518 1453.35 680.15C1453.48 680.088 1452.98 678.122 1452.31 675.911C1448.32 662.95 1446.1 646.671 1445.67 627.321C1445.3 611.104 1445.98 603.364 1448.93 590.157C1463.25 525.78 1523.03 453.601 1624.28 378.412C1645.97 362.318 1673.86 343.337 1695.98 329.638C1701.14 326.444 1705.38 323.741 1705.38 323.557C1705.38 323.004 1585.7 254.142 1584.84 254.204C1584.41 254.204 1577.95 259.364 1570.52 265.63Z" fill="url(#paint7_linear_850_1414)"/>
<path d="M1017.01 351.323C1028.99 365.698 1036.11 379.826 1039.19 395.306C1040.48 402.186 1040.48 418.526 1039.12 429.276C1037.1 445.248 1034.52 455.261 1025.3 483.026C1014.98 514.048 1013.01 523.385 1012.52 543.533C1011.84 570.193 1015.78 587.516 1027.82 610.736C1030.95 616.695 1037.22 626.708 1037.77 626.585C1039.12 626.278 1079.92 590.895 1097.25 574.985L1107.45 565.525L1110.64 555.881C1118.44 532.169 1121.94 513.249 1122.74 490.336C1123.73 460.728 1117.15 436.156 1102.1 413.489C1085.63 388.672 1061.06 368.831 1024.87 351.078C1018.11 347.761 1012.34 345.058 1012.15 345.058C1011.91 345.058 1014.12 347.883 1017.01 351.323Z" fill="url(#paint8_linear_850_1414)"/>
<path d="M1542.2 485.913C1509.57 521.173 1489.42 552.133 1479.22 582.724C1473.88 598.941 1472.15 610.674 1472.71 628.243C1473.63 657.913 1479.77 679.843 1492.49 699.193C1499.99 710.557 1505.95 717.13 1534.82 745.879C1568.19 779.05 1576.97 788.756 1591.84 808.843C1600.13 820.084 1611.13 836.977 1616.91 847.359L1618.38 850H1709.19C1759.14 850 1800 849.877 1800 849.693C1800 849.017 1791.34 835.81 1786.67 829.237C1775.55 813.757 1764.43 800.734 1749.37 785.807C1727.87 764.43 1707.29 747.721 1662.07 714.857C1622.13 685.863 1606.83 673.516 1589.81 656.5C1572 638.686 1562.84 626.4 1553.93 608.279C1543.49 586.963 1539.37 569.21 1539.31 544.7C1539.25 524.49 1542.32 504.833 1549.02 482.719C1549.88 479.893 1550.49 477.497 1550.37 477.374C1550.31 477.313 1546.62 481.121 1542.2 485.913Z" fill="url(#paint9_linear_850_1414)"/>
<path d="M1363.78 654.596C1360.27 660.861 1350.32 678.246 1341.54 693.173C1332.81 708.161 1325.68 720.631 1325.68 721C1325.68 722.044 1333.24 729.661 1341.04 736.541C1345.28 740.227 1357.57 749.933 1368.38 758.041C1379.2 766.211 1390.69 775.057 1393.88 777.76C1417.84 797.847 1433.63 817.259 1445.8 841.707L1449.92 850H1518.42H1586.87L1586.13 848.587C1584.29 845.147 1574.21 830.466 1567.7 821.743C1556.82 807.246 1546.25 795.206 1530.96 779.91C1507.85 756.874 1494.21 745.449 1448.26 710.557C1420.85 689.733 1412.07 682.853 1400.15 672.594C1391.79 665.407 1378.64 652.753 1373.18 646.61L1370.17 643.109L1363.78 654.596Z" fill="url(#paint10_linear_850_1414)"/>
<path d="M1307.25 753.066C1301.23 764.123 1290.48 786.299 1286.42 795.82C1279.23 812.774 1273.46 831.571 1271.37 844.594L1270.57 850H1345.16H1419.81L1417.84 846.437C1411.39 834.889 1401.87 822.357 1391.73 812.221C1382.7 803.191 1376.19 797.786 1354.25 781.384C1334.47 766.519 1324.64 758.533 1316.71 750.977C1313.95 748.336 1311.55 746.186 1311.37 746.186C1311.18 746.186 1309.28 749.319 1307.25 753.066Z" fill="url(#paint11_linear_850_1414)"/>
<defs>
<linearGradient id="paint0_linear_850_1414" x1="0" y1="425" x2="1920" y2="425" gradientUnits="userSpaceOnUse">
<stop stop-color="#BE1B86"/>
<stop offset="1" stop-color="#2B306C"/>
</linearGradient>
<linearGradient id="paint1_linear_850_1414" x1="1179.21" y1="185.496" x2="1341.66" y2="185.496" gradientUnits="userSpaceOnUse">
<stop stop-color="#BE1B86"/>
<stop offset="1" stop-color="#2B306C"/>
</linearGradient>
<linearGradient id="paint2_linear_850_1414" x1="1368.69" y1="190.582" x2="1438.24" y2="190.582" gradientUnits="userSpaceOnUse">
<stop stop-color="#BE1B86"/>
<stop offset="1" stop-color="#2B306C"/>
</linearGradient>
<linearGradient id="paint3_linear_850_1414" x1="1076.97" y1="492.083" x2="1402.22" y2="492.083" gradientUnits="userSpaceOnUse">
<stop stop-color="#BE1B86"/>
<stop offset="1" stop-color="#2B306C"/>
</linearGradient>
<linearGradient id="paint4_linear_850_1414" x1="1372.32" y1="277.372" x2="1559.77" y2="277.372" gradientUnits="userSpaceOnUse">
<stop stop-color="#BE1B86"/>
<stop offset="1" stop-color="#2B306C"/>
</linearGradient>
<linearGradient id="paint5_linear_850_1414" x1="858" y1="533.34" x2="1279.5" y2="533.34" gradientUnits="userSpaceOnUse">
<stop stop-color="#BE1B86"/>
<stop offset="1" stop-color="#2B306C"/>
</linearGradient>
<linearGradient id="paint6_linear_850_1414" x1="977.203" y1="374.226" x2="1219.91" y2="374.226" gradientUnits="userSpaceOnUse">
<stop stop-color="#BE1B86"/>
<stop offset="1" stop-color="#2B306C"/>
</linearGradient>
<linearGradient id="paint7_linear_850_1414" x1="1384.17" y1="467.18" x2="1705.38" y2="467.18" gradientUnits="userSpaceOnUse">
<stop stop-color="#BE1B86"/>
<stop offset="1" stop-color="#2B306C"/>
</linearGradient>
<linearGradient id="paint8_linear_850_1414" x1="1012.13" y1="485.822" x2="1122.84" y2="485.822" gradientUnits="userSpaceOnUse">
<stop stop-color="#BE1B86"/>
<stop offset="1" stop-color="#2B306C"/>
</linearGradient>
<linearGradient id="paint9_linear_850_1414" x1="1472.61" y1="663.687" x2="1800" y2="663.687" gradientUnits="userSpaceOnUse">
<stop stop-color="#BE1B86"/>
<stop offset="1" stop-color="#2B306C"/>
</linearGradient>
<linearGradient id="paint10_linear_850_1414" x1="1325.68" y1="746.554" x2="1586.87" y2="746.554" gradientUnits="userSpaceOnUse">
<stop stop-color="#BE1B86"/>
<stop offset="1" stop-color="#2B306C"/>
</linearGradient>
<linearGradient id="paint11_linear_850_1414" x1="1270.57" y1="798.093" x2="1419.81" y2="798.093" gradientUnits="userSpaceOnUse">
<stop stop-color="#BE1B86"/>
<stop offset="1" stop-color="#2B306C"/>
</linearGradient>
</defs>
</svg>
