<svg width="16" height="16" viewBox="0 0 16 16" fill="none" xmlns="http://www.w3.org/2000/svg">
<path d="M3.15628 0.496094C2.36565 0.658593 1.72503 1.00547 1.15315 1.57422C0.57815 2.14297 0.231275 2.78672 0.0562752 3.59922C0.00315019 3.83672 2.51953e-05 4.15234 2.51953e-05 7.98047C2.51953e-05 12.4555 -0.0062248 12.2586 0.17815 12.8367C0.556275 14.0242 1.51565 14.993 2.69378 15.3711C3.26253 15.5523 3.3344 15.5586 5.5219 15.5586C7.41253 15.5586 7.52503 15.5555 7.68753 15.4992C8.19378 15.3211 8.49378 14.8867 8.4969 14.3367C8.4969 14.0867 8.48752 14.0461 8.38128 13.8305C8.24378 13.5492 8.0594 13.3742 7.7719 13.2367L7.56253 13.1367L5.56253 13.1211C3.6219 13.1055 3.55628 13.1023 3.40315 13.0398C3.0719 12.9023 2.76878 12.6367 2.61253 12.3367C2.41565 11.9711 2.4219 12.1273 2.4219 8.00859C2.4219 5.63984 2.4344 4.19297 2.45315 4.08672C2.52815 3.68359 2.82503 3.26484 3.17815 3.06484C3.5219 2.86797 3.50003 2.87109 5.51878 2.87109C6.7594 2.87109 7.4094 2.85859 7.5219 2.83672C8.02503 2.73047 8.39377 2.34609 8.48752 1.83359C8.58127 1.32109 8.30002 0.780469 7.81253 0.539844L7.62503 0.449219L5.53128 0.442968C3.60003 0.439843 3.41565 0.442968 3.15628 0.496094Z" fill="#6C3F99"/>
<path d="M11.3329 3.83604C10.786 4.03917 10.4392 4.62979 10.5454 5.17979C10.6142 5.53604 10.6985 5.66104 11.2892 6.25167L11.8392 6.80792H9.16416C7.32353 6.80792 6.43291 6.81729 6.32041 6.84229C5.95791 6.91729 5.60478 7.18917 5.45478 7.51104C5.28603 7.86729 5.29228 8.22041 5.46728 8.57979C5.65166 8.95166 5.97666 9.18291 6.40478 9.24541C6.53603 9.26416 7.64853 9.27666 9.18291 9.27666H11.7423L11.2423 9.78291C10.611 10.4267 10.561 10.5173 10.561 10.9954C10.561 11.286 10.5704 11.3454 10.6454 11.5017C10.761 11.7517 10.9798 11.9767 11.2298 12.0985C11.4204 12.1923 11.4548 12.1985 11.7642 12.1985C12.3173 12.1985 12.2017 12.2892 14.1142 10.3767C15.661 8.82979 15.7673 8.71729 15.8642 8.51104C15.9579 8.31416 15.9673 8.26416 15.9673 8.01104C15.9642 7.64229 15.8923 7.45479 15.6267 7.14854C15.5173 7.02041 14.761 6.25479 13.9485 5.44542C12.2454 3.75479 12.311 3.80479 11.7954 3.78604C11.5579 3.77667 11.4642 3.78917 11.3329 3.83604Z" fill="#6C3F99"/>
</svg>
